<svg aria-hidden="true" style="position: absolute; width: 0; height: 0; overflow: hidden;" version="1.1" xmlns="http://www.w3.org/2000/svg" xmlns:xlink="http://www.w3.org/1999/xlink">
<defs>
<symbol id="user" viewBox="0 0 32 32">
<path d="M16 20c-4.227 0-7.986 2.041-10.379 5.208-0.515 0.682-0.773 1.022-0.764 1.483 0.006 0.356 0.23 0.805 0.51 1.025 0.362 0.284 0.865 0.284 1.869 0.284h17.527c1.005 0 1.507 0 1.869-0.284 0.28-0.22 0.503-0.669 0.51-1.025 0.008-0.461-0.249-0.801-0.764-1.483-2.393-3.167-6.152-5.208-10.379-5.208z"></path>
<path d="M16 16c3.314 0 6-2.686 6-6s-2.686-6-6-6c-3.314 0-6 2.686-6 6s2.686 6 6 6z"></path>
</symbol>
<symbol id="arrow-down" viewBox="0 0 32 32">
<path stroke-linejoin="miter" stroke-linecap="butt" stroke-miterlimit="4" stroke-width="2.2857" d="M30.52 8.336l-14.521 14.521-14.521-14.521"></path>
</symbol>
<symbol id="arrow-up" viewBox="0 0 32 32">
<path stroke-linejoin="miter" stroke-linecap="butt" stroke-miterlimit="4" stroke-width="2.2857" d="M1.478 24l14.521-14.521 14.521 14.521"></path>
</symbol>
<symbol id="lock" viewBox="0 0 32 32">
<path d="M25.143 10.667h-1.524v-3.048c0-4.206-3.413-7.619-7.619-7.619s-7.619 3.413-7.619 7.619v3.048h-1.524c-1.676 0-3.048 1.371-3.048 3.048v15.238c0 1.676 1.371 3.048 3.048 3.048h18.286c1.676 0 3.048-1.371 3.048-3.048v-15.238c0-1.676-1.371-3.048-3.048-3.048zM16 24.381c-1.676 0-3.048-1.371-3.048-3.048s1.371-3.048 3.048-3.048c1.676 0 3.048 1.371 3.048 3.048s-1.371 3.048-3.048 3.048zM20.724 10.667h-9.448v-3.048c0-2.606 2.118-4.724 4.724-4.724s4.724 2.118 4.724 4.724v3.048z"></path>
</symbol>
<symbol id="mail" viewBox="0 0 32 32">
<path d="M28.8 3.2h-25.6c-1.76 0-3.184 1.44-3.184 3.2l-0.016 19.2c0 1.76 1.44 3.2 3.2 3.2h25.6c1.76 0 3.2-1.44 3.2-3.2v-19.2c0-1.76-1.44-3.2-3.2-3.2zM28.8 9.6l-12.8 8-12.8-8v-3.2l12.8 8 12.8-8v3.2z"></path>
</symbol>
<symbol id="calendar" viewBox="0 0 32 32">
<path d="M11.2 14.4h-3.2v3.2h3.2v-3.2zM17.6 14.4h-3.2v3.2h3.2v-3.2zM24 14.4h-3.2v3.2h3.2v-3.2zM27.2 3.2h-1.6v-3.2h-3.2v3.2h-12.8v-3.2h-3.2v3.2h-1.6c-1.776 0-3.184 1.44-3.184 3.2l-0.016 22.4c0 1.76 1.424 3.2 3.2 3.2h22.4c1.76 0 3.2-1.44 3.2-3.2v-22.4c0-1.76-1.44-3.2-3.2-3.2zM27.2 28.8h-22.4v-17.6h22.4v17.6z"></path>
</symbol>
<symbol id="wallet" viewBox="0 0 32 32">
<path fill="#508f8c" style="fill: var(--color1, #508f8c)" d="M24 13.333h-16c-1.12 0-2.067 0.693-2.467 1.667l14.813 3.627c0.413 0.107 0.853 0 1.173-0.267l4.653-3.893c-0.493-0.68-1.28-1.133-2.173-1.133zM24 8h-16c-1.467 0-2.667 1.2-2.667 2.667v0.733c0.787-0.453 1.693-0.733 2.667-0.733h16c0.973 0 1.88 0.28 2.667 0.733v-0.733c0-1.467-1.2-2.667-2.667-2.667z"></path>
<path fill="#081222" style="fill: var(--color2, #081222)" d="M24 5.333h-16c-2.947 0-5.333 2.387-5.333 5.333v10.667c0 2.947 2.387 5.333 5.333 5.333h16c2.947 0 5.333-2.387 5.333-5.333v-10.667c0-2.947-2.387-5.333-5.333-5.333zM21.52 18.36c-0.32 0.267-0.76 0.373-1.173 0.267l-14.813-3.627c0.4-0.973 1.347-1.667 2.467-1.667h16c0.893 0 1.68 0.453 2.173 1.12l-4.653 3.907zM26.667 11.4c-0.787-0.453-1.693-0.733-2.667-0.733h-16c-0.973 0-1.88 0.28-2.667 0.733v-0.733c0-1.467 1.2-2.667 2.667-2.667h16c1.467 0 2.667 1.2 2.667 2.667v0.733z"></path>
</symbol>
<symbol id="plus" viewBox="0 0 32 32">
<path stroke-linejoin="miter" stroke-linecap="butt" stroke-miterlimit="4" stroke-width="3.2" d="M16 0v32"></path>
<path stroke-linejoin="miter" stroke-linecap="butt" stroke-miterlimit="4" stroke-width="3.2" d="M0 16h32"></path>
</symbol>
<symbol id="statistics" viewBox="0 0 32 32">
<path  d="M24.842 9.825c-1.081 0-1.965 0.926-1.965 2.058 0 0.185 0.019 0.36 0.068 0.525l-3.488 3.664c-0.157-0.051-0.334-0.072-0.511-0.072s-0.354 0.021-0.511 0.072l-2.506-2.625c0.049-0.165 0.069-0.35 0.069-0.535-0-1.132-0.884-2.058-1.965-2.058s-1.965 0.926-1.965 2.058c0 0.185 0.020 0.371 0.069 0.535l-4.48 4.683c-0.157-0.051-0.324-0.072-0.501-0.072-1.081 0-1.965 0.926-1.965 2.058s0.884 2.058 1.965 2.058 1.965-0.926 1.965-2.058c0-0.185-0.019-0.36-0.068-0.525l4.47-4.693c0.157 0.051 0.335 0.072 0.511 0.072s0.354-0.020 0.511-0.072l2.505 2.624c-0.049 0.165-0.068 0.35-0.068 0.535 0 1.132 0.884 2.058 1.965 2.058s1.965-0.926 1.965-2.058c0-0.185-0.019-0.371-0.068-0.535l3.498-3.654c0.157 0.051 0.324 0.072 0.501 0.072 1.081 0 1.965-0.926 1.965-2.058s-0.884-2.058-1.965-2.058z"></path>
</symbol>
<symbol id="home" viewBox="0 0 32 32">
<path  d="M4.211 15.686h3.452v9.203h5.755v-6.902h4.604v6.902h5.754v-9.203h3.452l-11.508-10.353-11.509 10.353z"></path>
</symbol>
<symbol id="currency" viewBox="0 0 32 32">
<path d="M14.522 9.374c-2.033 0.44-3.667 1.761-3.667 3.783 0 2.42 2.001 3.625 4.924 4.327 2.62 0.629 3.144 1.551 3.144 2.525-0 0.723-0.514 1.875-2.829 1.875-2.158 0-3.007-0.964-3.123-2.2h-2.305c0.126 2.294 1.844 3.584 3.855 4.013v2.273h3.144v-2.252c2.043-0.388 3.667-1.572 3.667-3.72 0-2.976-2.546-3.992-4.924-4.61s-3.144-1.258-3.144-2.253c0-1.142 1.059-1.938 2.83-1.938 1.865 0 2.556 0.891 2.619 2.201h2.316c-0.073-1.802-1.174-3.458-3.364-3.993v-2.294h-3.144v2.263z"></path>
</symbol>
<symbol id="close" viewBox="0 0 32 32">
<path stroke-linejoin="miter" stroke-linecap="butt" stroke-miterlimit="4" stroke-width="1.7778" d="M1.778 1.778l28.444 28.444"></path>
<path stroke-linejoin="miter" stroke-linecap="butt" stroke-miterlimit="4" stroke-width="1.7778" d="M1.778 30.222l28.444-28.444"></path>
</symbol>
<symbol id="exit" viewBox="0 0 32 32">
<path d="M20.051 23.237h2.499v4.997c0 2.067-1.681 3.748-3.748 3.748h-15.054c-2.066 0-3.748-1.681-3.748-3.748v-24.486c0-2.066 1.681-3.748 3.748-3.748h15.054c2.067 0 3.748 1.681 3.748 3.748v4.997h-2.499v-4.997c0-0.689-0.56-1.249-1.249-1.249h-15.054c-0.689 0-1.249 0.561-1.249 1.249v24.486c0 0.689 0.561 1.249 1.249 1.249h15.054c0.689 0 1.249-0.561 1.249-1.249v-4.997zM26.111 10.102l-1.767 1.767 2.873 2.874h-16.161v2.499h16.161l-2.873 2.873 1.767 1.767 5.889-5.889-5.889-5.89z"></path>
</symbol>
<symbol id="edit" viewBox="0 0 32 32">
<path stroke-linejoin="round" stroke-linecap="round" stroke-miterlimit="4" stroke-width="2.7429" d="M24 13.334l-5.333-5.333M3.333 28.667l4.512-0.502c0.551-0.061 0.827-0.092 1.085-0.175 0.229-0.074 0.446-0.178 0.647-0.311 0.226-0.149 0.422-0.345 0.814-0.737l17.608-17.608c1.473-1.473 1.473-3.861 0-5.333s-3.861-1.473-5.333 0l-17.608 17.608c-0.392 0.392-0.588 0.588-0.737 0.814-0.132 0.201-0.237 0.418-0.311 0.647-0.083 0.258-0.114 0.533-0.175 1.085l-0.501 4.513z"></path>
</symbol>
<symbol id="close-1" viewBox="0 0 31 32">
<path stroke-linejoin="miter" stroke-linecap="butt" stroke-miterlimit="4" stroke-width="3.4783" d="M1.391 2.087l27.826 27.826"></path>
<path stroke-linejoin="miter" stroke-linecap="butt" stroke-miterlimit="4" stroke-width="3.4783" d="M1.391 29.913l27.826-27.826"></path>
</symbol>
<symbol id="ellipse" viewBox="0 0 35 32">
<path d="M34.291 16c0 8.64-7.654 15.644-17.095 15.644s-17.095-7.004-17.095-15.644c0-8.64 7.654-15.644 17.095-15.644s17.095 7.004 17.095 15.644z"></path>
</symbol>
<symbol fill="none" xmlns="http://www.w3.org/2000/svg" viewBox="0 0 31 29" id="plus-2">
    <g filter="url(#filter0_d_12985_3917)">
      <path d="M15.1814 0.5V20.5" stroke="#FCFCFC" stroke-width="2"></path>
      <path d="M4.25415 10.5L26.109 10.5" stroke="#FCFCFC" stroke-width="2"></path>
    </g>
    <defs>
      <filter id="filter0_d_12985_3917" x="0.25415" y="0.5" width="29.8547" height="28" filterUnits="userSpaceOnUse" color-interpolation-filters="sRGB">
        <feFlood flood-opacity="0" result="BackgroundImageFix"></feFlood>
        <feColorMatrix in="SourceAlpha" type="matrix" values="0 0 0 0 0 0 0 0 0 0 0 0 0 0 0 0 0 0 127 0" result="hardAlpha"></feColorMatrix>
        <feOffset dy="4"></feOffset>
        <feGaussianBlur stdDeviation="2"></feGaussianBlur>
        <feComposite in2="hardAlpha" operator="out"></feComposite>
        <feColorMatrix type="matrix" values="0 0 0 0 0 0 0 0 0 0 0 0 0 0 0 0 0 0 0.25 0"></feColorMatrix>
        <feBlend mode="normal" in2="BackgroundImageFix" result="effect1_dropShadow_12985_3917"></feBlend>
        <feBlend mode="normal" in="SourceGraphic" in2="effect1_dropShadow_12985_3917" result="shape"></feBlend>
      </filter>
    </defs>
  </symbol>
</defs>
</svg>
