<svg aria-hidden="true" style="position: absolute; width: 0; height: 0; overflow: hidden;" version="1.1" xmlns="http://www.w3.org/2000/svg" xmlns:xlink="http://www.w3.org/1999/xlink">
<defs>
<symbol id="user" viewBox="0 0 32 32">
<path d="M16 20c-4.227 0-7.986 2.041-10.379 5.208-0.515 0.682-0.773 1.022-0.764 1.483 0.006 0.356 0.23 0.805 0.51 1.025 0.362 0.284 0.865 0.284 1.869 0.284h17.527c1.005 0 1.507 0 1.869-0.284 0.28-0.22 0.503-0.669 0.51-1.025 0.008-0.461-0.249-0.801-0.764-1.483-2.393-3.167-6.152-5.208-10.379-5.208z"></path>
<path d="M16 16c3.314 0 6-2.686 6-6s-2.686-6-6-6c-3.314 0-6 2.686-6 6s2.686 6 6 6z"></path>
</symbol>
<symbol id="arrow-down" viewBox="0 0 32 32">
<path stroke-linejoin="miter" stroke-linecap="butt" stroke-miterlimit="4" stroke-width="2.2857" d="M30.52 8.336l-14.521 14.521-14.521-14.521"></path>
</symbol>
<symbol id="arrow-up" viewBox="0 0 32 32">
<path stroke-linejoin="miter" stroke-linecap="butt" stroke-miterlimit="4" stroke-width="2.2857" d="M1.478 24l14.521-14.521 14.521 14.521"></path>
</symbol>
<symbol id="lock" viewBox="0 0 32 32">
<path d="M25.143 10.667h-1.524v-3.048c0-4.206-3.413-7.619-7.619-7.619s-7.619 3.413-7.619 7.619v3.048h-1.524c-1.676 0-3.048 1.371-3.048 3.048v15.238c0 1.676 1.371 3.048 3.048 3.048h18.286c1.676 0 3.048-1.371 3.048-3.048v-15.238c0-1.676-1.371-3.048-3.048-3.048zM16 24.381c-1.676 0-3.048-1.371-3.048-3.048s1.371-3.048 3.048-3.048c1.676 0 3.048 1.371 3.048 3.048s-1.371 3.048-3.048 3.048zM20.724 10.667h-9.448v-3.048c0-2.606 2.118-4.724 4.724-4.724s4.724 2.118 4.724 4.724v3.048z"></path>
</symbol>
<symbol id="mail" viewBox="0 0 32 32">
<path d="M28.8 3.2h-25.6c-1.76 0-3.184 1.44-3.184 3.2l-0.016 19.2c0 1.76 1.44 3.2 3.2 3.2h25.6c1.76 0 3.2-1.44 3.2-3.2v-19.2c0-1.76-1.44-3.2-3.2-3.2zM28.8 9.6l-12.8 8-12.8-8v-3.2l12.8 8 12.8-8v3.2z"></path>
</symbol>
<symbol id="calendar" viewBox="0 0 32 32">
<path d="M11.2 14.4h-3.2v3.2h3.2v-3.2zM17.6 14.4h-3.2v3.2h3.2v-3.2zM24 14.4h-3.2v3.2h3.2v-3.2zM27.2 3.2h-1.6v-3.2h-3.2v3.2h-12.8v-3.2h-3.2v3.2h-1.6c-1.776 0-3.184 1.44-3.184 3.2l-0.016 22.4c0 1.76 1.424 3.2 3.2 3.2h22.4c1.76 0 3.2-1.44 3.2-3.2v-22.4c0-1.76-1.44-3.2-3.2-3.2zM27.2 28.8h-22.4v-17.6h22.4v17.6z"></path>
</symbol>
<symbol id="wallet" viewBox="0 0 32 32">
<path fill="#508f8c" style="fill: var(--color1, #508f8c)" d="M24 13.333h-16c-1.12 0-2.067 0.693-2.467 1.667l14.813 3.627c0.413 0.107 0.853 0 1.173-0.267l4.653-3.893c-0.493-0.68-1.28-1.133-2.173-1.133zM24 8h-16c-1.467 0-2.667 1.2-2.667 2.667v0.733c0.787-0.453 1.693-0.733 2.667-0.733h16c0.973 0 1.88 0.28 2.667 0.733v-0.733c0-1.467-1.2-2.667-2.667-2.667z"></path>
<path fill="#081222" style="fill: var(--color2, #081222)" d="M24 5.333h-16c-2.947 0-5.333 2.387-5.333 5.333v10.667c0 2.947 2.387 5.333 5.333 5.333h16c2.947 0 5.333-2.387 5.333-5.333v-10.667c0-2.947-2.387-5.333-5.333-5.333zM21.52 18.36c-0.32 0.267-0.76 0.373-1.173 0.267l-14.813-3.627c0.4-0.973 1.347-1.667 2.467-1.667h16c0.893 0 1.68 0.453 2.173 1.12l-4.653 3.907zM26.667 11.4c-0.787-0.453-1.693-0.733-2.667-0.733h-16c-0.973 0-1.88 0.28-2.667 0.733v-0.733c0-1.467 1.2-2.667 2.667-2.667h16c1.467 0 2.667 1.2 2.667 2.667v0.733z"></path>
</symbol>
</defs>
</svg>
